<?xml version="1.0" encoding="iso-8859-1"?>
<!-- Generator: Adobe Illustrator 19.0.0, SVG Export Plug-In . SVG Version: 6.00 Build 0)  -->
<svg version="1.1" id="Capa_1" xmlns="http://www.w3.org/2000/svg" xmlns:xlink="http://www.w3.org/1999/xlink" x="0px" y="0px"
	 viewBox="0 0 512 512" style="enable-background:new 0 0 512 512;" xml:space="preserve">
<path style="fill:#9B6F43;" d="M503.827,478.369c-36.99-62.472-14.599-23.769-112.087-194.373h-93.522l-2.615,4.577l92.543,161.946
	l0,0l20.188,35.975h90.862C503.365,486.494,505.952,481.957,503.827,478.369z"/>
<path style="fill:#8E6138;" d="M316.516,283.996h-18.299l-2.615,4.577l92.543,161.946l0,0l20.188,35.975h20.49
	C428.824,478.477,434.329,490.164,316.516,283.996z"/>
<path style="fill:#9B6F43;" d="M388.743,450.704L388.743,450.704L284.247,267.841v-0.001l-18.329-32.075H144.426l-18.328,32.075
	v0.001L23.892,446.699c10.297-10.468,24.617-16.965,40.46-16.965c31.349,0,56.761,25.412,56.761,56.761
	c11.002,0,280.846,0,287.714,0L388.743,450.704z"/>
<path style="fill:#8E6138;" d="M148.472,267.841L148.472,267.841l18.329-32.076h-22.373l-18.328,32.075v0.001L23.892,446.699
	c8.355-8.494,19.361-14.374,31.68-16.289L148.472,267.841z"/>
<circle style="fill:#FAC149;" cx="357.018" cy="84.594" r="59.083"/>
<path style="fill:#F8A748;" d="M319.281,84.592c0-28.985,20.877-53.079,48.41-58.107c-3.464-0.633-7.028-0.98-10.677-0.98
	c-32.633,0-59.087,26.454-59.087,59.087c0,36.732,33.255,64.774,69.764,58.106C340.158,137.67,319.281,113.577,319.281,84.592z"/>
<path style="fill:#FFCE9B;" d="M344.979,225.545c-7.706-0.001-15.416,3.597-19.528,10.795l-29.998,52.495h99.052
	c-3.44-6.019-26.238-45.916-29.997-52.495C360.539,229.392,353.013,225.545,344.979,225.545z"/>
<polygon style="fill:#FFB181;" points="307.367,267.985 295.453,288.834 319.281,288.834 "/>
<path style="fill:#FFCE9B;" d="M268.298,239.927l-38.602-67.552c-5.162-9.037-14.843-13.556-24.523-13.556
	c-9.677-0.001-19.357,4.518-24.522,13.556l-38.602,67.552L268.298,239.927L268.298,239.927z"/>
<path style="fill:#FFB181;" d="M205.172,158.818c-9.677,0-19.357,4.518-24.522,13.556l-38.601,67.552H164.3l38.601-67.552
	c3.136-5.488,7.942-9.299,13.398-11.455C212.771,159.525,208.974,158.817,205.172,158.818z"/>
<g>
	<path style="fill:#4CE079;" d="M64.352,427.472c-29.09,0-53.071,22.757-56.373,52.085c-0.416,3.696,2.477,6.937,6.197,6.937
		h106.936C121.113,453.897,95.701,427.472,64.352,427.472z"/>
	<path style="fill:#4CE079;" d="M161.374,443.298c-22.942,0-41.541,19.34-41.541,43.196h83.082
		C202.915,462.638,184.316,443.298,161.374,443.298z"/>
</g>
<g>
	<path style="fill:#32CC65;" d="M27.98,479.557c2.914-25.88,21.933-46.632,46.353-51.157c-3.242-0.599-6.574-0.928-9.982-0.928
		c-29.091,0-53.071,22.757-56.373,52.085c-0.416,3.696,2.477,6.937,6.197,6.937h20.001C30.458,486.494,27.564,483.253,27.98,479.557
		z"/>
	<path style="fill:#32CC65;" d="M171.375,444.566c-26.288-6.757-51.542,13.959-51.542,41.928h20.001
		C139.833,466.224,153.264,449.222,171.375,444.566z"/>
</g>
<path d="M7.5,493.994c11.343,0,488.592,0,491.63,0c9.936,0,16.13-10.849,11.062-19.407v0.001
	c-36.881-62.29-15.001-24.486-108.7-188.459c0-0.001-0.001-0.001-0.001-0.002c-32.292-56.509-30.084-52.708-30.906-53.938
	c-11.952-17.814-40.218-16.842-50.818,1.713l-23.182,40.568c-6.561-11.483-58.776-102.857-60.468-105.818
	c-13.205-23.114-48.848-23.136-62.069-0.001L17.676,442.3C6.734,453.827,0,469.384,0,486.494C0,490.636,3.358,493.994,7.5,493.994z
	 M128.087,478.994c-0.001-0.011-0.003-0.022-0.005-0.034c3.438-15.157,17.018-26.506,33.2-26.506
	c16.194,0,29.784,11.367,33.209,26.54H128.087z M332.791,241.347c5.359-9.379,20.575-9.201,25.832,0l23.43,41.003H309.36
	L332.791,241.347z M497.285,482.232L497.285,482.232c-0.001-0.001-0.002-0.002-0.003-0.004L497.285,482.232z M495.368,478.994
	h-82.24c-24.873-44.325-0.504-1.456-103.469-181.643h80.967C486.052,464.344,458.119,416.086,495.368,478.994z M146.309,247.427
	h41.271c4.142,0,7.5-3.358,7.5-7.5s-3.358-7.5-7.5-7.5h-32.699l32.19-56.331c7.458-13.053,28.552-13.073,36.021,0l32.19,56.331
	h-32.699c-4.142,0-7.5,3.358-7.5,7.5s3.358,7.5,7.5,7.5h41.271l25.33,44.327c0,0,85.306,149.041,106.742,187.239h-62.749
	l-62.297-109.642c-2.045-3.601-6.623-4.86-10.227-2.816c-3.602,2.046-4.862,6.625-2.815,10.227l58.087,102.231H209.751
	c-3.621-23.494-23.976-41.542-48.468-41.542c-16.265,0-30.698,7.965-39.624,20.193c-14.313-28.357-46.965-41.941-76.962-32.397
	L146.309,247.427z M112.883,478.612c-0.021,0.128-0.049,0.254-0.068,0.382H15.571C23.901,424.695,103.875,422.842,112.883,478.612z"
	/>
<path d="M356.924,33.005c22.755,0,42.561,14.59,49.285,36.305c1.225,3.956,5.421,6.171,9.383,4.946
	c3.957-1.226,6.171-5.426,4.945-9.383c-8.681-28.032-34.246-46.867-63.614-46.867c-36.717,0-66.587,29.872-66.587,66.587
	s29.871,66.587,66.587,66.587c29.368,0,54.934-18.835,63.614-46.867c1.226-3.957-0.988-8.158-4.945-9.383
	c-3.962-1.226-8.158,0.99-9.383,4.946c-6.725,21.715-26.53,36.305-49.285,36.305c-28.444,0-51.587-23.142-51.587-51.587
	S328.48,33.005,356.924,33.005z"/>
<g>
</g>
<g>
</g>
<g>
</g>
<g>
</g>
<g>
</g>
<g>
</g>
<g>
</g>
<g>
</g>
<g>
</g>
<g>
</g>
<g>
</g>
<g>
</g>
<g>
</g>
<g>
</g>
<g>
</g>
</svg>
